<mxfile host="app.diagrams.net" agent="Mozilla/5.0 (Windows NT 10.0; Win64; x64) AppleWebKit/537.36 (KHTML, like Gecko) Chrome/131.0.0.0 Safari/537.36" version="25.0.3">
  <diagram name="PÃ gina-1" id="J5MT5u0cnqmtdoeKDXBp">
    <mxGraphModel grid="1" page="1" gridSize="10" guides="1" tooltips="1" connect="1" arrows="1" fold="1" pageScale="1" pageWidth="827" pageHeight="1169" math="0" shadow="0">
      <root>
        <mxCell id="0" />
        <mxCell id="1" parent="0" />
        <mxCell id="cvbSl8VPHtp7lG7rAtU1-1" value="*" style="edgeLabel;html=1;align=center;verticalAlign=middle;resizable=0;points=[];" connectable="0" vertex="1" parent="1">
          <mxGeometry x="861.9224452533388" y="1101.433486404191" as="geometry" />
        </mxCell>
        <mxCell id="cvbSl8VPHtp7lG7rAtU1-2" value="Visita" style="swimlane;fontStyle=2;align=center;verticalAlign=top;childLayout=stackLayout;horizontal=1;startSize=26;horizontalStack=0;resizeParent=1;resizeLast=0;collapsible=1;marginBottom=0;rounded=0;shadow=0;strokeWidth=1;" vertex="1" parent="1">
          <mxGeometry x="780.0000000000001" y="1103.78" width="160" height="122" as="geometry">
            <mxRectangle x="230" y="140" width="160" height="26" as="alternateBounds" />
          </mxGeometry>
        </mxCell>
        <mxCell id="cvbSl8VPHtp7lG7rAtU1-3" value="- idioma: TIdioma" style="text;align=left;verticalAlign=top;spacingLeft=4;spacingRight=4;overflow=hidden;rotatable=0;points=[[0,0.5],[1,0.5]];portConstraint=eastwest;rounded=0;shadow=0;html=0;" vertex="1" parent="cvbSl8VPHtp7lG7rAtU1-2">
          <mxGeometry y="26" width="160" height="26" as="geometry" />
        </mxCell>
        <mxCell id="cvbSl8VPHtp7lG7rAtU1-4" value="- HoraInici: Time" style="text;align=left;verticalAlign=top;spacingLeft=4;spacingRight=4;overflow=hidden;rotatable=0;points=[[0,0.5],[1,0.5]];portConstraint=eastwest;rounded=0;shadow=0;html=0;" vertex="1" parent="cvbSl8VPHtp7lG7rAtU1-2">
          <mxGeometry y="52" width="160" height="26" as="geometry" />
        </mxCell>
        <mxCell id="cvbSl8VPHtp7lG7rAtU1-5" value="- horaFi: Time [0..1]" style="text;align=left;verticalAlign=top;spacingLeft=4;spacingRight=4;overflow=hidden;rotatable=0;points=[[0,0.5],[1,0.5]];portConstraint=eastwest;rounded=0;shadow=0;html=0;" vertex="1" parent="cvbSl8VPHtp7lG7rAtU1-2">
          <mxGeometry y="78" width="160" height="26" as="geometry" />
        </mxCell>
        <mxCell id="cvbSl8VPHtp7lG7rAtU1-13" value="Recurs" style="swimlane;fontStyle=0;childLayout=stackLayout;horizontal=1;startSize=26;fillColor=none;horizontalStack=0;resizeParent=1;resizeParentMax=0;resizeLast=0;collapsible=1;marginBottom=0;whiteSpace=wrap;html=1;" vertex="1" parent="1">
          <mxGeometry x="1169.4399999999998" y="1124.6100000000001" width="140" height="78" as="geometry" />
        </mxCell>
        <mxCell id="cvbSl8VPHtp7lG7rAtU1-14" value="- nom: String" style="text;strokeColor=none;fillColor=none;align=left;verticalAlign=top;spacingLeft=4;spacingRight=4;overflow=hidden;rotatable=0;points=[[0,0.5],[1,0.5]];portConstraint=eastwest;whiteSpace=wrap;html=1;" vertex="1" parent="cvbSl8VPHtp7lG7rAtU1-13">
          <mxGeometry y="26" width="140" height="26" as="geometry" />
        </mxCell>
        <mxCell id="cvbSl8VPHtp7lG7rAtU1-15" value="- mida: String" style="text;strokeColor=none;fillColor=none;align=left;verticalAlign=top;spacingLeft=4;spacingRight=4;overflow=hidden;rotatable=0;points=[[0,0.5],[1,0.5]];portConstraint=eastwest;whiteSpace=wrap;html=1;" vertex="1" parent="cvbSl8VPHtp7lG7rAtU1-13">
          <mxGeometry y="52" width="140" height="26" as="geometry" />
        </mxCell>
        <mxCell id="cvbSl8VPHtp7lG7rAtU1-18" style="rounded=0;orthogonalLoop=1;jettySize=auto;html=1;exitX=1;exitY=0.5;exitDx=0;exitDy=0;entryX=0;entryY=0.5;entryDx=0;entryDy=0;" edge="1" parent="1" source="cvbSl8VPHtp7lG7rAtU1-2" target="cvbSl8VPHtp7lG7rAtU1-13">
          <mxGeometry relative="1" as="geometry">
            <mxPoint x="1069.5900000000001" y="1143.558" as="targetPoint" />
          </mxGeometry>
        </mxCell>
        <mxCell id="cvbSl8VPHtp7lG7rAtU1-19" value="0..1" style="edgeLabel;html=1;align=center;verticalAlign=middle;resizable=0;points=[];" connectable="0" vertex="1" parent="cvbSl8VPHtp7lG7rAtU1-18">
          <mxGeometry x="-0.8745" y="2" relative="1" as="geometry">
            <mxPoint y="-11" as="offset" />
          </mxGeometry>
        </mxCell>
        <mxCell id="cvbSl8VPHtp7lG7rAtU1-20" value="*" style="edgeLabel;html=1;align=center;verticalAlign=middle;resizable=0;points=[];" connectable="0" vertex="1" parent="cvbSl8VPHtp7lG7rAtU1-18">
          <mxGeometry x="0.8649" y="-2" relative="1" as="geometry">
            <mxPoint x="11" y="-9" as="offset" />
          </mxGeometry>
        </mxCell>
        <mxCell id="cvbSl8VPHtp7lG7rAtU1-21" value="es pot generar" style="edgeLabel;html=1;align=center;verticalAlign=middle;resizable=0;points=[];" connectable="0" vertex="1" parent="cvbSl8VPHtp7lG7rAtU1-18">
          <mxGeometry x="0.0879" relative="1" as="geometry">
            <mxPoint y="-12" as="offset" />
          </mxGeometry>
        </mxCell>
        <mxCell id="cvbSl8VPHtp7lG7rAtU1-22" value="CapturaDePantalla" style="swimlane;fontStyle=0;childLayout=stackLayout;horizontal=1;startSize=26;fillColor=none;horizontalStack=0;resizeParent=1;resizeParentMax=0;resizeLast=0;collapsible=1;marginBottom=0;whiteSpace=wrap;html=1;" vertex="1" parent="1">
          <mxGeometry x="1171.9999999999998" y="1305.6999999999998" width="140" height="52" as="geometry" />
        </mxCell>
        <mxCell id="cvbSl8VPHtp7lG7rAtU1-23" value="- dadesImatge: Byte[ ]" style="text;strokeColor=none;fillColor=none;align=left;verticalAlign=top;spacingLeft=4;spacingRight=4;overflow=hidden;rotatable=0;points=[[0,0.5],[1,0.5]];portConstraint=eastwest;whiteSpace=wrap;html=1;" vertex="1" parent="cvbSl8VPHtp7lG7rAtU1-22">
          <mxGeometry y="26" width="140" height="26" as="geometry" />
        </mxCell>
        <mxCell id="cvbSl8VPHtp7lG7rAtU1-25" value="" style="endArrow=block;endSize=10;endFill=0;shadow=0;strokeWidth=1;rounded=0;elbow=vertical;exitX=0.5;exitY=0;exitDx=0;exitDy=0;" edge="1" parent="1" source="cvbSl8VPHtp7lG7rAtU1-22">
          <mxGeometry width="160" relative="1" as="geometry">
            <mxPoint x="1351.4399999999998" y="1305.6999999999998" as="sourcePoint" />
            <mxPoint x="1241.4399999999998" y="1203.6999999999998" as="targetPoint" />
          </mxGeometry>
        </mxCell>
        <mxCell id="cvbSl8VPHtp7lG7rAtU1-26" value=":tipus" style="text;html=1;align=center;verticalAlign=middle;resizable=0;points=[];autosize=1;strokeColor=none;fillColor=none;" vertex="1" parent="1">
          <mxGeometry x="1259.4399999999998" y="1260.0000000000002" width="50" height="30" as="geometry" />
        </mxCell>
        <mxCell id="cvbSl8VPHtp7lG7rAtU1-29" value="{disjoint, complete}" style="text;html=1;align=center;verticalAlign=middle;resizable=0;points=[];autosize=1;strokeColor=none;fillColor=none;" vertex="1" parent="1">
          <mxGeometry x="1110" y="1260" width="120" height="30" as="geometry" />
        </mxCell>
        <mxCell id="cvbSl8VPHtp7lG7rAtU1-30" value="MobleSimilarExistent" style="swimlane;fontStyle=0;childLayout=stackLayout;horizontal=1;startSize=30;horizontalStack=0;resizeParent=1;resizeParentMax=0;resizeLast=0;collapsible=1;marginBottom=0;whiteSpace=wrap;html=1;" vertex="1" parent="1">
          <mxGeometry x="1171" y="890" width="159" height="120" as="geometry" />
        </mxCell>
        <mxCell id="cvbSl8VPHtp7lG7rAtU1-31" value="- nom: String" style="text;strokeColor=none;fillColor=none;align=left;verticalAlign=middle;spacingLeft=4;spacingRight=4;overflow=hidden;points=[[0,0.5],[1,0.5]];portConstraint=eastwest;rotatable=0;whiteSpace=wrap;html=1;" vertex="1" parent="cvbSl8VPHtp7lG7rAtU1-30">
          <mxGeometry y="30" width="159" height="30" as="geometry" />
        </mxCell>
        <mxCell id="cvbSl8VPHtp7lG7rAtU1-32" value="- preu: float" style="text;strokeColor=none;fillColor=none;align=left;verticalAlign=middle;spacingLeft=4;spacingRight=4;overflow=hidden;points=[[0,0.5],[1,0.5]];portConstraint=eastwest;rotatable=0;whiteSpace=wrap;html=1;" vertex="1" parent="cvbSl8VPHtp7lG7rAtU1-30">
          <mxGeometry y="60" width="159" height="30" as="geometry" />
        </mxCell>
        <mxCell id="cvbSl8VPHtp7lG7rAtU1-33" value="- linkDeCompra: String" style="text;strokeColor=none;fillColor=none;align=left;verticalAlign=middle;spacingLeft=4;spacingRight=4;overflow=hidden;points=[[0,0.5],[1,0.5]];portConstraint=eastwest;rotatable=0;whiteSpace=wrap;html=1;" vertex="1" parent="cvbSl8VPHtp7lG7rAtU1-30">
          <mxGeometry y="90" width="159" height="30" as="geometry" />
        </mxCell>
        <mxCell id="cvbSl8VPHtp7lG7rAtU1-36" value="Moble" style="swimlane;fontStyle=0;align=center;verticalAlign=top;childLayout=stackLayout;horizontal=1;startSize=26;horizontalStack=0;resizeParent=1;resizeLast=0;collapsible=1;marginBottom=0;rounded=0;shadow=0;strokeWidth=1;" vertex="1" parent="1">
          <mxGeometry x="810" y="939.9985520361993" width="130" height="61.764705882352935" as="geometry">
            <mxRectangle x="320" y="590" width="160" height="26" as="alternateBounds" />
          </mxGeometry>
        </mxCell>
        <mxCell id="cvbSl8VPHtp7lG7rAtU1-37" value="- nom: String&#xa;" style="text;align=left;verticalAlign=top;spacingLeft=4;spacingRight=4;overflow=hidden;rotatable=0;points=[[0,0.5],[1,0.5]];portConstraint=eastwest;rounded=0;shadow=0;html=0;" vertex="1" parent="cvbSl8VPHtp7lG7rAtU1-36">
          <mxGeometry y="26" width="130" height="24" as="geometry" />
        </mxCell>
        <mxCell id="cvbSl8VPHtp7lG7rAtU1-45" style="edgeStyle=orthogonalEdgeStyle;rounded=0;orthogonalLoop=1;jettySize=auto;html=1;exitX=1;exitY=0.5;exitDx=0;exitDy=0;entryX=0.021;entryY=-0.067;entryDx=0;entryDy=0;entryPerimeter=0;" edge="1" parent="1" source="cvbSl8VPHtp7lG7rAtU1-37" target="cvbSl8VPHtp7lG7rAtU1-33">
          <mxGeometry relative="1" as="geometry" />
        </mxCell>
        <mxCell id="cvbSl8VPHtp7lG7rAtU1-46" value="*" style="edgeLabel;html=1;align=center;verticalAlign=middle;resizable=0;points=[];" connectable="0" vertex="1" parent="cvbSl8VPHtp7lG7rAtU1-45">
          <mxGeometry x="0.8177" relative="1" as="geometry">
            <mxPoint y="-8" as="offset" />
          </mxGeometry>
        </mxCell>
        <mxCell id="cvbSl8VPHtp7lG7rAtU1-47" value="*" style="edgeLabel;html=1;align=center;verticalAlign=middle;resizable=0;points=[];" connectable="0" vertex="1" parent="cvbSl8VPHtp7lG7rAtU1-45">
          <mxGeometry x="-0.8169" y="1" relative="1" as="geometry">
            <mxPoint x="-6" y="-7" as="offset" />
          </mxGeometry>
        </mxCell>
      </root>
    </mxGraphModel>
  </diagram>
</mxfile>
